<?xml version="1.0" encoding="UTF-8"?>
<svg id="Layer_1" data-name="Layer 1" xmlns="http://www.w3.org/2000/svg" viewBox="0 0 250.17 106.06">
  <defs>
    <style>
      .cls-1 {
        fill: #231f20;
      }

      .cls-2 {
        fill: #fff;
      }
    </style>
  </defs>
  <path class="cls-2" d="M0,39.03h17.97c10.65,0,15.98,3.98,15.98,11.95,0,3.95-1.82,7.23-5.47,9.85,5.29,2.18,7.93,6.07,7.93,11.68,0,4.29-1.56,7.72-4.67,10.26-1.52,1.22-3.15,2.07-4.89,2.55-1.74.48-4.08.72-7.03.72h-2.79v-12.09h2.5c1.47,0,2.51-.18,3.12-.53.6-.36.91-.98.91-1.88,0-1.52-1.23-2.27-3.7-2.27h-2.83v-12.54c2.7,0,4.06-.88,4.06-2.65,0-1.63-1.22-2.45-3.66-2.45h-2.72v34.41H0v-47.02Z"/>
  <path class="cls-2" d="M60.06,51.68v34.38h-14.71v-47.02h18.87c5.75,0,10.2,1.36,13.37,4.06,3.53,3.03,5.29,6.88,5.29,11.54s-2.19,8.76-6.56,12.02l8.48,19.39h-15.43l-7.14-15.16v-12.09h1.16c3.09,0,4.64-1.26,4.64-3.79,0-2.23-1.79-3.34-5.36-3.34h-2.61Z"/>
  <path class="cls-2" d="M117.46,86.05v-30.52c0-5.35,1.68-9.63,5.05-12.85,3.37-3.21,7.86-4.82,13.46-4.82s9.85,1.56,12.81,4.68c2.96,3.12,4.44,7.61,4.44,13.47v30.04h-14.71v-30.04c0-2.87-1.07-4.31-3.22-4.31s-3.12,1.44-3.12,4.31v30.04h-14.71Z"/>
  <path class="cls-2" d="M176.97,39.03v47.02h-14.71v-47.02h14.71ZM205.19,39.03l-13.04,21.32,12.97,25.7h-16.52l-11.19-25.97,12.68-21.05h15.11Z"/>
  <path class="cls-2" d="M108.45,50.27v35.78h-14.71v-35.78h14.71Z"/>
  <path class="cls-2" d="M97.08,28.79c.55-.11.75.75.45,1.09-1.87,2.67-3.26,5.65-5.09,8.34-.43.64-1.26,1.92-1.44.4l6.08-9.82Z"/>
  <path class="cls-2" d="M104.93,28.79c.35-.07.61.37.77.58,1.33,1.81,4.55,6.97,5.4,8.92.54,1.24-.38,1.31-1.17.23-1.06-1.43-4.68-7.2-5.23-8.65-.13-.34-.25-.99.23-1.09Z"/>
  <path class="cls-2" d="M97.65,16.93c-.86.14-1.19-.69-1.57-1.25-1.43-2.09-3.29-5.16-4.47-7.39-.39-.73-1.28-1.84.05-1.8l.33.35c1.43,2.94,4.12,5.99,5.42,8.91.18.4.33.73.25,1.18Z"/>
  <path class="cls-2" d="M111.28,6.61c.07.43-.16.75-.34,1.11-1.44,2.93-3.84,5.81-5.33,8.77l-1.03.45c-.11-.69.29-1.18.57-1.76.5-1,4.94-8.47,5.43-8.68l.7.12Z"/>
  <polygon class="cls-2" points="93.72 22.42 93.72 23.3 81.59 23.3 81.25 22.97 81.59 22.42 93.72 22.42"/>
  <polygon class="cls-2" points="108.51 23.3 108.51 22.42 120.64 22.42 120.98 22.76 120.64 23.3 108.51 23.3"/>
  <path class="cls-2" d="M100.59,21.15c2.72-.56,3.07,3.01,1.05,3.43-2.71.56-3.17-2.99-1.05-3.43Z"/>
  <path class="cls-2" d="M103.02,19.29c-1.22-1.2,1.18-2.64,1.7-1.05.31.97-1.12,1.62-1.7,1.05Z"/>
  <path class="cls-2" d="M103.02,26.43c.58-.57,2.01.08,1.7,1.05-.51,1.59-2.92.15-1.7-1.05Z"/>
  <path class="cls-2" d="M98.46,26.23c1.15,0,1.57,1.92,0,1.92s-1.15-1.92,0-1.92Z"/>
  <path class="cls-2" d="M98.05,17.63c1.63-.46,1.98,1.55.55,1.84-.97.19-1.79-1.49-.55-1.84Z"/>
  <path class="cls-2" d="M95.26,22.01c1.83-.58,2.16,1.84.43,1.75-1.2-.06-.99-1.57-.43-1.75Z"/>
  <path class="cls-2" d="M105.89,22.01c1.3-.42,2.01,1.14,1,1.62-1.51.71-2.06-1.28-1-1.62Z"/>
  <path class="cls-2" d="M101.13,44.55c-7.68.01-15.37-3.54-19.75-10.72-8.41-13.8,1.19-31.38,17.84-32.65.64-.05,1.28-.07,1.91-.07V0c-12.81.1-25.11,9.78-24.05,24.74.92,12.97,12.4,20.82,24.05,20.95v-1.14Z"/>
  <path class="cls-2" d="M101.06,44.55c7.68.01,15.37-3.54,19.75-10.72,8.41-13.8-1.19-31.38-17.84-32.65-.64-.05-1.28-.07-1.91-.07V0c12.81.1,25.11,9.78,24.05,24.74-.92,12.97-12.4,20.82-24.05,20.95v-1.14Z"/>
  <path class="cls-1" d="M231.01,9.15c-7.54-.45-16.4-.56-23.94-.24-22.09.94-44.67,6.39-64.26,16.05-7.8,3.85-15.12,8.84-22.75,13.12-2.18,2.35-4.85,4.21-7.8,5.53,10.24-3.8,19.3-11,28.78-16.01,32.96-17.42,72.04-21.68,109.11-15.81-6.03-1.47-12.91-2.26-19.15-2.64Z"/>
  <path class="cls-1" d="M111.47,12.37c-1.42.71-2.38,2.12-2.38,3.74,0,2.33,1.99,4.22,4.44,4.22.87,0,1.68-.24,2.37-.65-.55-2.91-2.15-5.48-4.43-7.32Z"/>
  <path class="cls-2" d="M113.53,21.06c-2.87,0-5.21-2.22-5.21-4.95s2.34-4.95,5.21-4.95,5.21,2.22,5.21,4.95-2.34,4.95-5.21,4.95ZM113.53,12.61c-2.03,0-3.68,1.57-3.68,3.5s1.65,3.5,3.68,3.5,3.68-1.57,3.68-3.5-1.65-3.5-3.68-3.5Z"/>
  <g>
    <path class="cls-1" d="M96.66,9.22c-.09,1.52.69,3.03,2.15,3.87,2.11,1.2,4.83.55,6.09-1.45.45-.71.65-1.5.63-2.27-2.91-1.05-6.05-1.05-8.88-.14Z"/>
    <path class="cls-2" d="M101.08,14.41c-.93,0-1.85-.24-2.67-.71-1.19-.68-2.04-1.76-2.38-3.04-.34-1.28-.13-2.62.58-3.75,1.48-2.34,4.68-3.11,7.15-1.71h0c2.46,1.4,3.27,4.45,1.79,6.79-.71,1.14-1.85,1.94-3.2,2.26-.42.1-.85.15-1.28.15ZM101.1,5.96c-1.25,0-2.47.61-3.16,1.7-.5.8-.65,1.74-.41,2.65.24.91.83,1.67,1.68,2.15.84.48,1.83.62,2.78.39.95-.23,1.76-.79,2.26-1.6,1.04-1.65.47-3.81-1.27-4.8h0c-.59-.34-1.24-.5-1.88-.5Z"/>
  </g>
  <g>
    <path class="cls-1" d="M115.63,25.73c-1.47-.6-3.23-.41-4.56.62-1.9,1.48-2.18,4.14-.63,5.94.55.64,1.26,1.09,2.03,1.33,2.03-2.25,3.09-5.05,3.15-7.89Z"/>
    <path class="cls-2" d="M113.89,34.56c-1.51,0-3.01-.62-4.04-1.82-1.82-2.11-1.49-5.24.74-6.97,1.08-.84,2.43-1.23,3.82-1.09,1.38.13,2.63.77,3.51,1.79,1.82,2.11,1.49,5.24-.74,6.97h0c-.97.75-2.13,1.12-3.29,1.12ZM113.88,26.12c-.85,0-1.66.27-2.32.79-.76.59-1.23,1.43-1.33,2.36s.19,1.84.81,2.56c1.28,1.49,3.61,1.71,5.17.49h0c1.57-1.22,1.8-3.43.52-4.92-.62-.72-1.5-1.17-2.48-1.27-.13-.01-.25-.02-.37-.02Z"/>
  </g>
  <g>
    <path class="cls-1" d="M90.68,12.35c1.42.71,2.38,2.12,2.38,3.74,0,2.33-1.99,4.22-4.44,4.22-.87,0-1.68-.24-2.37-.65.55-2.91,2.15-5.48,4.43-7.32Z"/>
    <path class="cls-2" d="M88.62,21.04c-2.87,0-5.21-2.22-5.21-4.95s2.34-4.95,5.21-4.95,5.21,2.22,5.21,4.95-2.34,4.95-5.21,4.95ZM88.62,12.59c-2.03,0-3.68,1.57-3.68,3.5s1.65,3.5,3.68,3.5,3.68-1.57,3.68-3.5-1.65-3.5-3.68-3.5Z"/>
  </g>
  <g>
    <path class="cls-1" d="M86.52,25.71c1.47-.6,3.23-.41,4.56.62,1.9,1.48,2.18,4.14.63,5.94-.55.64-1.26,1.09-2.03,1.33-2.03-2.25-3.09-5.05-3.15-7.89Z"/>
    <path class="cls-2" d="M88.26,34.55c-1.2,0-2.35-.39-3.29-1.12h0c-1.08-.84-1.75-2.02-1.89-3.34-.14-1.32.27-2.61,1.15-3.63.88-1.02,2.13-1.66,3.51-1.79,1.38-.13,2.74.26,3.82,1.09,2.22,1.73,2.55,4.86.74,6.97-.88,1.02-2.13,1.66-3.51,1.79-.18.02-.35.03-.53.03ZM85.94,32.3c.76.59,1.72.87,2.69.77.98-.09,1.86-.54,2.48-1.27.62-.72.91-1.63.81-2.56-.1-.93-.57-1.77-1.33-2.36-.76-.59-1.72-.86-2.69-.77-.98.09-1.86.54-2.48,1.27-.62.72-.91,1.63-.81,2.56.1.93.57,1.77,1.33,2.36h0Z"/>
  </g>
  <g>
    <path class="cls-1" d="M105.56,36.51c.09-1.52-.68-3.03-2.15-3.87-2.1-1.2-4.83-.55-6.1,1.45-.45.71-.65,1.5-.63,2.27,2.91,1.05,6.05,1.06,8.88.15Z"/>
    <path class="cls-2" d="M101.12,41.22c-.93,0-1.85-.24-2.67-.71-2.46-1.4-3.27-4.45-1.79-6.8.72-1.13,1.85-1.94,3.2-2.26,1.35-.32,2.75-.12,3.94.56,2.46,1.4,3.27,4.45,1.79,6.8-.72,1.13-1.85,1.94-3.2,2.26-.42.1-.85.15-1.27.15ZM101.13,32.77c-.3,0-.6.04-.9.11-.95.23-1.76.79-2.26,1.59-.51.8-.65,1.74-.41,2.65s.83,1.67,1.68,2.15c.84.48,1.83.62,2.78.39.95-.23,1.76-.79,2.26-1.59,1.04-1.65.48-3.8-1.26-4.8-.58-.33-1.23-.5-1.88-.5Z"/>
  </g>
  <g>
    <path class="cls-2" d="M23.47,101.71v-3.08c.74,0,1.11-.27,1.11-.81,0-.49-.28-.74-.85-.74s-.86.34-.86,1.01v7.67h-3.67v-7.31c0-.76.08-1.38.24-1.86.16-.48.43-.94.82-1.35.43-.46.98-.83,1.63-1.1.65-.27,1.32-.4,2.02-.4,1.25,0,2.31.4,3.16,1.2s1.28,1.8,1.28,2.98-.38,2.09-1.15,2.8c-.7.66-1.75.99-3.16.99h-.56Z"/>
    <path class="cls-2" d="M38.16,97.19v8.58h-3.67v-11.73h4.71c1.43,0,2.55.34,3.34,1.01.88.76,1.32,1.72,1.32,2.88s-.55,2.19-1.64,3l2.12,4.84h-3.85l-1.78-3.78v-3.02h.29c.77,0,1.16-.32,1.16-.95,0-.56-.45-.83-1.34-.83h-.65Z"/>
    <path class="cls-2" d="M56.05,93.74c1.75,0,3.25.6,4.5,1.81,1.25,1.21,1.88,2.66,1.88,4.34s-.63,3.17-1.89,4.37c-1.26,1.2-2.79,1.8-4.59,1.8s-3.32-.6-4.58-1.81c-1.27-1.2-1.9-2.66-1.9-4.36s.64-3.18,1.91-4.37c1.27-1.19,2.83-1.79,4.68-1.79ZM55.94,97.2c-.75,0-1.4.26-1.93.79-.53.53-.8,1.16-.8,1.91s.27,1.38.8,1.91,1.17.79,1.92.79,1.4-.26,1.93-.79c.53-.52.79-1.16.79-1.91s-.26-1.39-.79-1.91c-.53-.52-1.17-.79-1.93-.79Z"/>
    <path class="cls-2" d="M72.45,97.4v8.36h-3.67v-11.73h4.78c2.1,0,3.74.45,4.93,1.36,1.41,1.08,2.12,2.55,2.12,4.41s-.6,3.23-1.81,4.35c-1.21,1.12-2.76,1.69-4.66,1.69-.22,0-.59-.01-1.09-.03v-3.45h.59c2.14,0,3.21-.85,3.21-2.55,0-1.6-1.05-2.4-3.16-2.4h-1.24Z"/>
    <path class="cls-2" d="M95.64,94.03v7.61c0,1.34-.42,2.41-1.26,3.22-.84.8-1.96,1.2-3.36,1.2s-2.46-.39-3.2-1.17c-.74-.78-1.11-1.9-1.11-3.36v-7.5h3.67v7.49c0,.72.27,1.07.8,1.07s.78-.36.78-1.07v-7.49h3.67Z"/>
    <path class="cls-2" d="M110.85,100.03l3.84.09c-.25,1.89-.94,3.35-2.07,4.38-1.12,1.03-2.59,1.55-4.4,1.55s-3.38-.59-4.62-1.76c-1.24-1.17-1.86-2.63-1.86-4.36s.63-3.22,1.89-4.41c1.26-1.19,2.82-1.79,4.67-1.79s3.34.58,4.56,1.75c.84.81,1.44,1.93,1.79,3.38l-3.93.25c-.44-1.28-1.27-1.93-2.5-1.93-.78,0-1.43.26-1.94.77-.51.52-.76,1.17-.76,1.97s.25,1.4.75,1.9c.5.5,1.13.75,1.9.75s1.4-.22,1.86-.66c.46-.44.73-1.07.82-1.9Z"/>
    <path class="cls-2" d="M126.43,97.4v8.36h-3.67v-8.36h-2.81v-3.37h9.29v3.37h-2.8Z"/>
    <path class="cls-2" d="M138.89,94.03v11.73h-3.67v-11.73h3.67Z"/>
    <path class="cls-2" d="M151.83,93.74c1.75,0,3.25.6,4.5,1.81,1.25,1.21,1.88,2.66,1.88,4.34s-.63,3.17-1.89,4.37-2.79,1.8-4.59,1.8-3.32-.6-4.58-1.81c-1.27-1.2-1.9-2.66-1.9-4.36s.64-3.18,1.91-4.37c1.27-1.19,2.83-1.79,4.68-1.79ZM151.73,97.2c-.75,0-1.4.26-1.93.79-.53.53-.8,1.16-.8,1.91s.27,1.38.8,1.91,1.17.79,1.92.79,1.4-.26,1.93-.79c.53-.52.79-1.16.79-1.91s-.26-1.39-.79-1.91c-.53-.52-1.17-.79-1.93-.79Z"/>
    <path class="cls-2" d="M164.31,105.77v-7.62c0-1.34.42-2.4,1.26-3.21.84-.8,1.96-1.2,3.36-1.2s2.46.39,3.2,1.17c.74.78,1.11,1.9,1.11,3.36v7.5h-3.67v-7.5c0-.72-.27-1.07-.8-1.07s-.78.36-.78,1.07v7.5h-3.67Z"/>
    <path class="cls-2" d="M185.9,93.98v3.34c-.27-.09-.47-.13-.61-.13-.28,0-.52.1-.71.29s-.3.43-.3.7c0,.24.11.53.33.89l.28.46c.51.84.76,1.65.76,2.42,0,1.14-.43,2.11-1.28,2.9-.85.79-1.89,1.19-3.12,1.19-.59,0-1.18-.13-1.75-.39v-3.4c.35.21.66.32.93.32.32,0,.59-.09.8-.26.21-.17.32-.39.32-.66,0-.17-.17-.55-.52-1.13-.55-.92-.82-1.83-.82-2.75,0-1.11.41-2.06,1.24-2.86.83-.8,1.82-1.2,2.97-1.2.51,0,1,.08,1.49.24Z"/>
  </g>
</svg>