<?xml version="1.0" encoding="UTF-8"?>
<svg id="Layer_1" data-name="Layer 1" xmlns="http://www.w3.org/2000/svg" viewBox="0 0 1919.97 237.7">
  <defs>
    <style>
      .cls-1 {
        fill: #f2994c;
      }
    </style>
  </defs>
  <path class="cls-1" d="M679.19,237.7c-.42-89.37-82.09-177.33-214.73-204.14C287.94-2.12,123.41,61.96,0,167.95v9.4C121.66,48.17,425.28-17.66,587.26,98.96c55.56,40.01,74.17,90.55,69.65,138.74h22.28Z"/>
  <g>
    <path class="cls-1" d="M1649.01,32.67c-147.93,6.52-397.65,47.48-629.25,45.78l9.11,18.06h-22.53l.49.16v12.91l-.4-.13c-.25,1.33-.81,2.55-1.67,3.62,271.09,4.7,560.56-76.46,826.62-57.89-213.64,19.32-468.01,51.35-639.86,182.52h44.01c14.4-10.54,28.56-19.85,41.94-27.66,167.07-97.45,419.44-147.18,642.49-145.17v-27.98c-89.59-7.19-180.62-8.2-270.96-4.22Z"/>
    <path class="cls-1" d="M811.4,61.97c-70.22-12.1-134.14-31.77-187.17-61.97h-31.95c46.61,31.92,99.54,56.81,149.35,72.97,23,7.46,46.27,13.7,69.77,18.88v-29.88Z"/>
  </g>
  <path class="cls-1" d="M1787,237.7c-5.07-10.14-8.91-21.37-11.26-33.74-14.42-75.88,53.47-101.96,113.62-116.2-101.24-6.25-149.21,75.12-119.32,149.94h16.96Z"/>
  <path class="cls-1" d="M505.55,150.28C384.16,45.82,114.99,82.86,0,178.8v20.58c67.93-51.41,149.49-86.52,241.27-93.52,92.22-7.04,192.72-2.93,259.3,62.98,23.7,23.46,37.48,46.28,41.9,68.87h14.32c-4.19-31.03-22.28-62.51-51.24-87.42Z"/>
</svg>