<?xml version="1.0" encoding="UTF-8"?>
<svg id="Layer_1" data-name="Layer 1" xmlns="http://www.w3.org/2000/svg" viewBox="0 0 1919.907 238.426">
  <defs>
    <style>
      .cls-1 {
        fill: #f2994c;
      }
    </style>
  </defs>
  <path class="cls-1" d="M1641.779,36.446c-243.135,8.825-759.084,108.939-1023.72-36.446h-33.598c44.726,30.236,94.589,54.085,141.709,70.014,341.366,115.399,741.808-37.328,1099.498-8.975-213.402,17.783-467.116,47.976-640.952,177.386h45.164c12.451-8.856,24.66-16.759,36.29-23.528,170.22-99.075,427.527-147.833,653.738-143.081v-28.297c-91.894-8.489-185.358-10.441-278.128-7.074Z"/>
  <path class="cls-1" d="M679.189,237.694c-.418-89.375-82.094-177.33-214.726-204.141C287.939-2.13,123.407,61.959,0,167.946v9.399C121.66,48.169,425.284-17.663,587.263,98.958c55.565,40.005,74.167,90.549,69.646,138.737h22.28Z"/>
  <path class="cls-1" d="M1787.002,237.694c-5.071-10.135-8.911-21.367-11.263-33.742-14.422-75.876,53.473-101.96,113.624-116.199-101.241-6.247-149.208,75.12-119.319,149.941h16.958Z"/>
  <path class="cls-1" d="M505.553,150.271C384.157,45.81,114.985,82.858,0,178.791v20.584c67.934-51.415,149.486-86.519,241.271-93.525,92.218-7.039,192.721-2.925,259.297,62.977,23.701,23.461,37.48,46.279,41.904,68.868h14.317c-4.185-31.026-22.279-62.506-51.235-87.423Z"/>
</svg>