<?xml version="1.0" encoding="UTF-8"?>
<svg id="Layer_1" data-name="Layer 1" xmlns="http://www.w3.org/2000/svg" viewBox="0 0 35.267 33.497">
  <defs>
    <style>
      .cls-1 {
        fill: #f8f5f0;
      }
    </style>
  </defs>
  <path class="cls-1" d="M17.056.025l.929-.025c13.47.341,21.778,14.361,14.698,25.482-6.874,10.798-23.564,10.653-30.252-.244C-4.315,14.248,3.762.457,17.056.025ZM13.498,7.317c-3.518.239-5.654,2.497-5.838,5.801-.123,2.207-.13,5.169,0,7.374.203,3.432,2.537,5.57,6.128,5.751,2.342.118,5.664.148,7.989-.004,3.428-.224,5.626-2.543,5.816-5.747.13-2.203.122-5.164-.004-7.37-.189-3.295-2.344-5.616-5.887-5.83-2.366-.143-5.839-.135-8.203.025Z"/>
  <path class="cls-1" d="M13.656,9.197c2.196-.166,5.519-.154,7.729-.025,2.592.15,4.066,1.56,4.226,4.026.136,2.09.155,5.21,0,7.291-.169,2.269-1.683,3.71-4.072,3.872-2.188.148-5.47.129-7.668,0-2.587-.152-4.076-1.548-4.234-4.018-.133-2.076-.125-4.993,0-7.073.144-2.382,1.47-3.879,4.02-4.072ZM23.686,10.93c-1.219-1.087-2.788.801-1.515,1.703,1.182.837,2.545-.784,1.515-1.703ZM17.133,12.052c-6.226.673-5.203,10.048,1.393,9.143,6.057-.831,5.018-9.836-1.393-9.143Z"/>
  <path class="cls-1" d="M17.612,13.704c4.354-.156,4.154,6.246-.184,5.845-3.72-.344-3.54-5.711.184-5.845Z"/>
</svg>