<?xml version="1.0" encoding="UTF-8"?>
<svg id="Layer_1" data-name="Layer 1" xmlns="http://www.w3.org/2000/svg" viewBox="0 0 35.093 33.365">
  <defs>
    <style>
      .cls-1 {
        fill: #fff;
      }
    </style>
  </defs>
  <polygon class="cls-1" points="14.839 12.916 21.616 16.632 14.839 20.415 14.839 12.916"/>
  <path class="cls-1" d="M17.546,0C7.871,0,0,7.484,0,16.682s7.871,16.682,17.546,16.682,17.546-7.484,17.546-16.682S27.221,0,17.546,0ZM30.346,22.427c-.777,3.252-4.37,2.879-7.172,2.998-4.476.189-9.001.206-13.479-.067-2.669-.163-4.524-.525-5.062-3.3-.48-2.476-.382-5.092-.263-7.591.147-3.086-.077-5.854,3.896-6.386,2.204-.295,4.624-.144,6.853-.302l4.688-.012c.098-.007.188.035.284.037,1.532.028,3.061.055,4.592.134,1.063.055,2.172.072,3.199.367,2.902.836,2.689,3.74,2.803,6.095.124,2.553.259,5.523-.339,8.027Z"/>
</svg>